<?xml version="1.0" encoding="utf-8"?>
<!-- Generator: Adobe Illustrator 16.0.0, SVG Export Plug-In . SVG Version: 6.00 Build 0)  -->
<!DOCTYPE svg PUBLIC "-//W3C//DTD SVG 1.1//EN" "http://www.w3.org/Graphics/SVG/1.1/DTD/svg11.dtd">
<svg version="1.1" id="Layer_1" xmlns="http://www.w3.org/2000/svg" xmlns:xlink="http://www.w3.org/1999/xlink" x="0px" y="0px"
	 width="500px" height="500px" viewBox="0 0 500 500" enable-background="new 0 0 500 500" xml:space="preserve">
<g>
	<path fill="#FFFFFF" d="M183.472,411.529c0,43.249-35.062,78.312-78.321,78.312s-78.319-35.062-78.319-78.312
		c0-43.255,35.06-78.327,78.319-78.327S183.472,368.274,183.472,411.529z"/>
	<path fill="#FFFFFF" d="M325.925,406.089c3.004,43.157-29.535,80.567-72.688,83.567c-43.162,3.01-80.575-29.53-83.575-72.683
		c-3.007-43.142,29.535-80.567,72.687-83.572C285.51,330.393,322.92,362.941,325.925,406.089z"/>
	<path fill="#FFFFFF" d="M472.475,406.089c3.01,43.157-29.529,80.567-72.682,83.567c-43.162,3.01-80.578-29.53-83.577-72.683
		c-3.01-43.142,29.534-80.567,72.687-83.572C432.064,330.393,469.476,362.941,472.475,406.089z"/>
	<path fill="#FFFFFF" d="M261.531,292.563c-92.97,0-150.082-66-150.865-66.921l22.084-18.674
		c3.763,4.417,93.804,107.288,233.808,25.286l14.614,24.955C336.917,283.132,296.657,292.563,261.531,292.563z"/>
	<path fill="#FFFFFF" d="M248.245,195.026c0,16.471-13.35,29.824-29.824,29.824c-16.471,0-29.821-13.353-29.821-29.824
		c0-16.472,13.35-29.824,29.821-29.824C234.895,165.202,248.245,178.555,248.245,195.026z"/>
	<circle fill="#FFFFFF" cx="286.202" cy="195.026" r="29.824"/>
	<path fill="#FFFFFF" d="M251.266,10.266c-113.615,0-206.05,92.435-206.05,206.05c0,113.62,92.435,206.055,206.05,206.055
		c113.62,0,206.051-92.435,206.051-206.055C457.316,102.701,364.886,10.266,251.266,10.266z M251.266,400.683
		c-101.655,0-184.359-82.707-184.359-184.367c0-31.389,7.908-60.963,21.802-86.858c31.037,2.803,116.962,3.267,159.084-69.991
		c0,0,46.482,76.596,156.094,53.544c20.02,29.486,31.741,65.054,31.741,103.306C435.628,317.976,352.926,400.683,251.266,400.683z"
		/>
</g>
</svg>
