<?xml version="1.0" encoding="utf-8"?>
<!-- Generator: Adobe Illustrator 16.0.0, SVG Export Plug-In . SVG Version: 6.00 Build 0)  -->
<!DOCTYPE svg PUBLIC "-//W3C//DTD SVG 1.1//EN" "http://www.w3.org/Graphics/SVG/1.1/DTD/svg11.dtd">
<svg version="1.1" id="Layer_1" xmlns="http://www.w3.org/2000/svg" xmlns:xlink="http://www.w3.org/1999/xlink" x="0px" y="0px"
	 width="500px" height="500px" viewBox="0 0 500 500" enable-background="new 0 0 500 500" xml:space="preserve">
<g>
	<path d="M-31535.162-500.294c-316.322,0-573.682,257.344-573.682,573.659c0,316.337,257.359,573.689,573.682,573.689
		s573.666-257.358,573.666-573.689C-30961.496-242.95-31218.84-500.294-31535.162-500.294z M-31537.408-257.352
		c100.068,0,181.17,81.125,181.17,181.171c0,100.061-81.123,181.17-181.17,181.17c-100.076,0-181.17-81.125-181.17-181.17
		C-31718.586-176.227-31637.48-257.352-31537.408-257.352z M-31214.275,475.939c-88.072,70.41-199.609,112.604-320.887,112.604
		c-121.131,0-232.557-42.055-320.594-112.297c8.164-145.186,103.762-291.843,220.719-291.843h199.9
		c117.197,0,213.037,141.332,220.854,286.745c0.008,0.015,0.008,0.029,0.008,0.044S-31214.275,473.833-31214.275,475.939z"/>
</g>
<g>
	<g>
		<path fill="#FFFFFF" d="M249.999,286.798c-50.368,0-91.35-40.981-91.35-91.35c0-50.368,40.982-91.34,91.35-91.34
			c50.358,0,91.331,40.972,91.331,91.34C341.33,245.816,300.357,286.798,249.999,286.798z M249.999,128.937
			c-36.682,0-66.521,29.839-66.521,66.521c0,36.682,29.839,66.521,66.521,66.521c36.672,0,66.521-29.839,66.521-66.521
			C316.52,158.776,286.681,128.937,249.999,128.937z"/>
	</g>
	<path fill="#FFFFFF" d="M249.999,6.613C115.804,6.613,6.623,115.794,6.623,249.98c0,134.215,109.181,243.406,243.376,243.406
		S493.377,384.195,493.377,249.98C493.386,115.785,384.204,6.613,249.999,6.613z M113.027,420.12c0.98-1.116,1.796-2.418,2.33-3.901
		c20.355-56.61,74.471-94.661,134.652-94.661c60.182,0,114.277,38.051,134.641,94.661c0.544,1.483,1.34,2.785,2.32,3.93
		c-37.497,30.227-85.137,48.408-136.961,48.408C198.175,468.557,150.534,450.375,113.027,420.12z M406.074,402.773
		c-25.228-63.627-87.254-106.026-156.065-106.026c-68.812,0-130.837,42.399-156.084,106.026
		c-38.613-39.438-62.482-93.359-62.482-152.793c0-120.509,98.048-218.547,218.567-218.547c120.508,0,218.556,98.048,218.556,218.547
		C468.556,309.414,444.687,363.326,406.074,402.773z"/>
</g>
</svg>
